# xmcd CD database file
#
# Track frame offsets:
#	150
#	15440
#	34592
#	49341
#	64794
#	81115
#	95682
#	115823
#	134389
#	150104
#	165445
#	184011
#	197777
#	213831
#	232585
#	249932
#	271652
#	288374
#	298892
#	312211
#
# Disc length: 4365 seconds
#
# Revision: 0
# Processed by: cddbd v1.5.1PL0 Copyright (c) Steve Scherf et al.
# Submitted via: CDex 1.51
#
DISCID=03110b14
DTITLE=Chrystian and Ralf - O melhor de
DYEAR=2004
DGENRE=Country
TTITLE0=Com Você
TTITLE1=Minha Vida Sem Você
TTITLE2=Canalha
TTITLE3=Onde Você For Eu Vou
TTITLE4=Brigas
TTITLE5=Mito
TTITLE6=No Mesmo Olhar
TTITLE7=O Que Tiver de Vir Virá
TTITLE8=Cheiro de Shampoo
TTITLE9=Sensível Demais
TTITLE10=Esse Amor que Me Mata
TTITLE11=Vira Virou
TTITLE12=É Desse Jeito que a Gente se Ama
TTITLE13=Alquimia
TTITLE14=Ausência
TTITLE15=Olhos de Luar
TTITLE16=Nova York
TTITLE17=Ladrão de Mulher
TTITLE18=Pagode em Brasília
TTITLE19=Ferreirinha
EXTD=YEAR: 2004
EXTT0=
EXTT1=
EXTT2=
EXTT3=
EXTT4=
EXTT5=
EXTT6=
EXTT7=
EXTT8=
EXTT9=
EXTT10=
EXTT11=
EXTT12=
EXTT13=
EXTT14=
EXTT15=
EXTT16=
EXTT17=
EXTT18=
EXTT19=
PLAYORDER=
